#tb 0: 1/10
#tb 1: 1/22050
0,          0,          0,        1,   262144, 0x7f9a3c6a
1,          0,          0,    57330,   131072, 0x255a6ac2
0,          1,          1,        1,   260600, 0x0329e6f4
0,          2,          2,        1,   259724, 0x2db0ad5e
0,          3,          3,        1,   258616, 0xe666009d
0,          4,          4,        1,   257364, 0xba42458c
0,          5,          5,        1,   255964, 0xf7e04c83
0,          6,          6,        1,   254192, 0xa04b49ff
0,          7,          7,        1,   252232, 0x65d4ab4c
0,          8,          8,        1,   249960, 0x8f0b3854
0,          9,          9,        1,   247396, 0x16d70776
0,         10,         10,        1,   244452, 0x8b0648f3
0,         11,         11,        1,   240972, 0x07e3ef41
0,         12,         12,        1,   237288, 0x197a1964
0,         13,         13,        1,   233344, 0xd6c51f01
0,         14,         14,        1,   229196, 0x48581a65
0,         15,         15,        1,   224688, 0x710e1fdb
0,         16,         16,        1,   219248, 0xcd96719d
0,         17,         17,        1,   212712, 0x4de31fd8
0,         18,         18,        1,   205864, 0x21a0a106
0,         19,         19,        1,   199148, 0xd1d77c92
0,         20,         20,        1,   192072, 0x620627a6
0,         21,         21,        1,   184928, 0x81548454
0,         22,         22,        1,   178296, 0x7bb40918
0,         23,         23,        1,   171944, 0xa7b714bb
0,         24,         24,        1,   165584, 0xa6246dba
0,         25,         25,        1,   159468, 0x7bc54abb
0,         26,         26,        1,   153524, 0xd2774028
1,      57330,      57330,    57330,   131072, 0xcc38a5e5
0,         27,         27,        1,   147568, 0xd94b2368
0,         28,         28,        1,   141536, 0xb512eae6
0,         29,         29,        1,   135368, 0x9b6ea2b3
0,         30,         30,        1,   128296, 0x7c26d136
0,         31,         31,        1,   120932, 0xccb8b273
0,         32,         32,        1,   113432, 0x9f2bb997
0,         33,         33,        1,   105724, 0x735519f6
0,         34,         34,        1,    98428, 0xa2933dbb
0,         35,         35,        1,    91136, 0xbe852457
0,         36,         36,        1,    83844, 0xc471106a
0,         37,         37,        1,    76648, 0x3f6e1c92
0,         38,         38,        1,    69624, 0x00f86b27
0,         39,         39,        1,    62436, 0xf360ccf0
0,         40,         40,        1,    55268, 0x0373c2a3
0,         41,         41,        1,    48220, 0xd5a5e0c1
0,         42,         42,        1,    48216, 0x1da7e0ad
0,         43,         43,        1,    48212, 0xa984e098
0,         44,         44,        1,    48208, 0x7962e082
0,         45,         45,        1,    48204, 0xc245e06e
0,         46,         46,        1,    48200, 0x4f2de059
0,         47,         47,        1,    48196, 0x2013e043
0,         48,         48,        1,    48192, 0x34ffe02c
0,         49,         49,        1,    48188, 0x7f22e018
0,         50,         50,        1,    48184, 0x0d5ae003
0,         51,         51,        1,    48180, 0xdf91dfed
0,         52,         52,        1,    48176, 0xf5eddfd6
1,     114660,     114660,    57330,   131072, 0x4d9c2c7e
0,         53,         53,        1,    48172, 0x415fdfc2
0,         54,         54,        1,    48168, 0xd0d8dfad
0,         55,         55,        1,    48164, 0xa47edf97
0,         56,         56,        1,    48160, 0xbc4adf80
0,         57,         57,        1,    48156, 0x08fcdf6c
0,         58,         58,        1,    48152, 0x99c5df57
0,         59,         59,        1,    41116, 0x8c22a4c1
0,         60,         60,        1,    34124, 0x33c9e476
0,         61,         61,        1,    27272, 0x8069fb08
0,         62,         62,        1,    20636, 0xa413e37e
0,         63,         63,        1,    14072, 0x428a2075
0,         64,         64,        1,     7712, 0x7c6b914f
0,         65,         65,        1,   262144, 0x687484cb
0,         66,         66,        1,   256292, 0x0dec8b5a
0,         67,         67,        1,   250612, 0xd127f411
0,         68,         68,        1,   245404, 0x4e760ddf
0,         69,         69,        1,   241956, 0x0412f83d
0,         70,         70,        1,   241184, 0x0de227e2
0,         71,         71,        1,   241180, 0xebe9eafb
0,         72,         72,        1,   241176, 0xf0c8eae5
0,         73,         73,        1,   241172, 0x47bbeace
0,         74,         74,        1,   241168, 0xfb8aeab9
0,         75,         75,        1,   241164, 0x0180eaa3
0,         76,         76,        1,   241160, 0x5978ea8c
0,         77,         77,        1,   241156, 0xbc86ea78
0,         78,         78,        1,   241152, 0x71b4ea63
1,     171990,     171990,    57330,   131072, 0x1b512fb8
0,         79,         79,        1,   241148, 0x78fbea4d
0,         80,         80,        1,   241144, 0xd263ea36
0,         81,         81,        1,   237912, 0xcb5839a6
0,         82,         82,        1,   229296, 0x350f07b6
0,         83,         83,        1,   214256, 0x3c954096
0,         84,         84,        1,   198068, 0x1470ae1f
0,         85,         85,        1,   180664, 0xa80de8b6
0,         86,         86,        1,   164672, 0x11ecf816
0,         87,         87,        1,   148996, 0x6346aa49
0,         88,         88,        1,   134804, 0x8fe4699a
0,         89,         89,        1,   124488, 0x63b82fa0
0,         90,         90,        1,   116892, 0xac785c29
0,         91,         91,        1,   109528, 0xc24da959
0,         92,         92,        1,   102688, 0xba25eb56
0,         93,         93,        1,    95192, 0x999820b3
0,         94,         94,        1,    89980, 0xa81aee1a
0,         95,         95,        1,    84696, 0xb274dad5
0,         96,         96,        1,    79152, 0xd7936f6e
0,         97,         97,        1,    74232, 0x1abdf78a
0,         98,         98,        1,    69112, 0x212918e8
0,         99,         99,        1,    63484, 0x45e36b2f
0,        100,        100,        1,    58616, 0xef171a5a
0,        101,        101,        1,    53396, 0xd16be9a0
0,        102,        102,        1,    47388, 0xc602914b
0,        103,        103,        1,    42276, 0x6b86b9dd
0,        104,        104,        1,    36932, 0xea0d85cb
1,     229320,     229320,    57330,   131072, 0x4e478505
0,        105,        105,        1,    30408, 0xc7df6cba
0,        106,        106,        1,    24468, 0x80007205
0,        107,        107,        1,    18572, 0xb4aa84d2
0,        108,        108,        1,    12632, 0x12c2efb8
0,        109,        109,        1,     6604, 0x75002817
0,        110,        110,        1,   262144, 0xf9544f5b
0,        111,        111,        1,   255448, 0x9242877e
0,        112,        112,        1,   248532, 0xef495999
0,        113,        113,        1,   238032, 0xac29500b
0,        114,        114,        1,   225424, 0x73035f24
0,        115,        115,        1,   215860, 0xed94de14
0,        116,        116,        1,   205996, 0x4d417b16
0,        117,        117,        1,   191904, 0xc195d49f
0,        118,        118,        1,   182596, 0x32a14954
0,        119,        119,        1,   174988, 0xdc83fa02
0,        120,        120,        1,   168008, 0x5e1d7302
0,        121,        121,        1,   161032, 0xf503efb4
0,        122,        122,        1,   154044, 0x1df06a7c
0,        123,        123,        1,   147056, 0x4c22ec13
0,        124,        124,        1,   140060, 0xede97385
0,        125,        125,        1,   133064, 0x50eefee6
0,        126,        126,        1,   126060, 0xc6478fb8
0,        127,        127,        1,   119056, 0xf45a2080
0,        128,        128,        1,   112044, 0x1d49b4ae
0,        129,        129,        1,   105028, 0xd35649dd
0,        130,        130,        1,    98012, 0x03ede949
1,     286650,     286650,    57330,   131072, 0xb29e283e
0,        131,        131,        1,    91000, 0x57128fb0
0,        132,        132,        1,    84000, 0xf7ff39c0
0,        133,        133,        1,    77004, 0xda18e580
0,        134,        134,        1,    70004, 0x8eff8af4
0,        135,        135,        1,    62992, 0x665831fd
0,        136,        136,        1,    55976, 0x130ada75
0,        137,        137,        1,    48956, 0x4cf47b2f
0,        138,        138,        1,    41936, 0x7a8e2006
0,        139,        139,        1,    34920, 0x9527ca2b
0,        140,        140,        1,    27912, 0x4c8078df
0,        141,        141,        1,    20884, 0x1e152e1f
0,        142,        142,        1,    13848, 0xd358d51b
0,        143,        143,        1,   262144, 0x38f14810
0,        144,        144,        1,   255104, 0x579bf26b
0,        145,        145,        1,   255100, 0x6488a2d4
0,        146,        146,        1,   248096, 0xbe966730
0,        147,        147,        1,   241144, 0xd8e3abf6
0,        148,        148,        1,   234268, 0xde2bb38e
0,        149,        149,        1,   227440, 0xb78f1aed
0,        150,        150,        1,   220692, 0x86026588
0,        151,        151,        1,   214000, 0x0fdbc796
